<svg width="28" height="28" viewBox="0 0 28 28" fill="none" xmlns="http://www.w3.org/2000/svg"><defs><linearGradient id="paint1_linear_0_1" x1="18.5549" y1="4.53155" x2="27.2164" y2="8.6476" gradientUnits="userSpaceOnUse">
<stop stop-color="#FFF1CA"/>
<stop offset="1" stop-color="#E1C07F"/>
</linearGradient></defs><path id="Vector" d="M1.75 19.25C1.75 18.7859 1.93437 18.3408 2.26256 18.0126C2.59075 17.6844 3.03587 17.5 3.5 17.5H7C7.46413 17.5 7.90925 17.6844 8.23744 18.0126C8.56563 18.3408 8.75 18.7859 8.75 19.25V24.5C8.75 24.9641 8.56563 25.4092 8.23744 25.7374C7.90925 26.0656 7.46413 26.25 7 26.25H3.5C3.03587 26.25 2.59075 26.0656 2.26256 25.7374C1.93437 25.4092 1.75 24.9641 1.75 24.5V19.25ZM10.5 12.25C10.5 11.7859 10.6844 11.3408 11.0126 11.0126C11.3408 10.6844 11.7859 10.5 12.25 10.5H15.75C16.2141 10.5 16.6592 10.6844 16.9874 11.0126C17.3156 11.3408 17.5 11.7859 17.5 12.25V24.5C17.5 24.9641 17.3156 25.4092 16.9874 25.7374C16.6592 26.0656 16.2141 26.25 15.75 26.25H12.25C11.7859 26.25 11.3408 26.0656 11.0126 25.7374C10.6844 25.4092 10.5 24.9641 10.5 24.5V12.25ZM19.25 3.5C19.25 3.03587 19.4344 2.59075 19.7626 2.26256C20.0908 1.93437 20.5359 1.75 21 1.75H24.5C24.9641 1.75 25.4092 1.93437 25.7374 2.26256C26.0656 2.59075 26.25 3.03587 26.25 3.5V24.5C26.25 24.9641 26.0656 25.4092 25.7374 25.7374C25.4092 26.0656 24.9641 26.25 24.5 26.25H21C20.5359 26.25 20.0908 26.0656 19.7626 25.7374C19.4344 25.4092 19.25 24.9641 19.25 24.5V3.5Z" fill="url(#paint1_linear_0_1)"/></svg>